# File created by Blade
# Date/Time:  Fri Jan 16 17:52:57 2015
#---------------------------------------------------------
:version 1.10
:name HOM
:units
  mass 1.0
  length 1.000000
  angle deg
:documentation
     Acclaim Skeleton File
:root
   axis xyz
   order TX TY TZ RX RY RZ
   position 0.000000 0.000000 0.000000
   orientation 0 0 0
:bonedata
   begin
      id 1
      name Spine_dum
      direction 0.000000 1.000000 0.000000
      length 7.170412
      axis 0.0 0.0 0.0 xyz
   end
   begin
      id 2
      name LeftUpLeg_dum
      direction 1.000000 0.000000 0.000000
      length 4.318350
      axis 0.0 0.0 0.0 xyz
   end
   begin
      id 3
      name RightUpLeg_dum
      direction -1.000000 0.000000 0.000000
      length 4.318350
      axis 0.0 0.0 0.0 xyz
   end
   begin
      id 4
      name Spine
      direction 0.000000 1.000000 0.000000
      length 0.000000
      axis 0.0 0.0 0.0 xyz
      dof rx ry rz
   end
   begin
      id 5
      name Spine_dum1
      direction 0.000000 1.000000 0.000000
      length 14.276153
      axis 0.0 0.0 0.0 xyz
   end
   begin
      id 6
      name Spine_dum2
      direction 0.000000 1.000000 0.000000
      length 10.718243
      axis 0.0 0.0 0.0 xyz
   end
   begin
      id 7
      name Spine_dum3
      direction 0.000000 1.000000 0.000000
      length 10.718243
      axis 0.0 0.0 0.0 xyz
   end
   begin
      id 8
      name Head
      direction 0.000000 1.000000 0.000000
      length 4.527550
      axis 0.0 0.0 0.0 xyz
      dof rx ry rz
   end
   begin
      id 9
      name LeftShoulder
      direction 1.000000 0.000000 0.000000
      length 7.058872
      axis 0.0 0.0 -90.0 xyz
      dof rx ry rz
   end
   begin
      id 10
      name LeftArm
      direction 1.000000 0.000000 0.000000
      length 10.955525
      axis 0.0 0.0 -90.0 xyz
      dof rx ry rz
   end
   begin
      id 11
      name LeftForeArm
      direction 1.000000 0.000000 0.000000
      length 8.193716
      axis 0.0 0.0 -90.0 xyz
      dof ry rz rx
   end
   begin
      id 12
      name LeftHand
      direction 0.000000 0.000000 0.000000
      length 0.000000
      axis 0.0 0.0 -90.0 xyz
      dof rx ry rz
   end
   begin
      id 13
      name LeftHand_dum1
      direction 0.000000 0.000000 0.000000
      length 0.000000
      axis 0.0 0.0 -90.0 xyz
   end
   begin
      id 14
      name LeftHand_dum2
      direction 1.000000 0.000000 0.000000
      length 3.937000
      axis 0.0 0.0 -90.0 xyz
   end
   begin
      id 15
      name LeftHandThumb1
      direction 0.000000 0.000000 1.000000
      length 3.937000
      axis 0.0 0.0 -90.0 xyz
      dof rx rz ry
   end
   begin
      id 16
      name RightShoulder
      direction -1.000000 0.000000 0.000000
      length 7.058872
      axis 0.0 0.0 90.0 xyz
      dof rx ry rz
   end
   begin
      id 17
      name RightArm
      direction -1.000000 0.000000 0.000000
      length 10.955525
      axis 0.0 0.0 90.0 xyz
      dof rx ry rz
   end
   begin
      id 18
      name RightForeArm
      direction -1.000000 0.000000 0.000000
      length 8.193716
      axis 0.0 0.0 90.0 xyz
      dof ry rz rx
   end
   begin
      id 19
      name RightHand
      direction 0.000000 0.000000 0.000000
      length 0.000000
      axis 0.0 0.0 90.0 xyz
      dof rx ry rz
   end
   begin
      id 20
      name RightHand_dum1
      direction 0.000000 0.000000 0.000000
      length 0.000000
      axis 0.0 0.0 90.0 xyz
   end
   begin
      id 21
      name RightHand_dum2
      direction -1.000000 0.000000 0.000000
      length 3.937000
      axis 0.0 0.0 90.0 xyz
   end
   begin
      id 22
      name RightHandThumb1
      direction 0.000000 0.000000 1.000000
      length 3.937000
      axis 0.0 0.0 90.0 xyz
      dof rx rz ry
   end
   begin
      id 23
      name LeftUpLeg
      direction 0.000000 -1.000000 0.000000
      length 17.323638
      axis 0.0 0.0 0.0 xyz
      dof rx ry rz
   end
   begin
      id 24
      name LeftLeg
      direction 0.000000 -1.000000 0.000000
      length 16.270368
      axis 0.0 0.0 0.0 xyz
      dof rx ry rz
   end
   begin
      id 25
      name LeftFoot
      direction 0.000000 -0.258819 0.965926
      length 4.922846
      axis 15.0 0.0 0.0 xyz
      dof rx ry rz
   end
   begin
      id 26
      name LeftToeBase
      direction 0.000000 0.000000 1.000000
      length 2.952750
      axis 0.0 0.0 0.0 xyz
      dof rx ry rz
   end
   begin
      id 27
      name RightUpLeg
      direction 0.000000 -1.000000 0.000000
      length 17.323638
      axis 0.0 0.0 0.0 xyz
      dof rx ry rz
   end
   begin
      id 28
      name RightLeg
      direction 0.000000 -1.000000 0.000000
      length 16.270368
      axis 0.0 0.0 0.0 xyz
      dof rx ry rz
   end
   begin
      id 29
      name RightFoot
      direction 0.000000 -0.258819 0.965926
      length 4.922846
      axis 15.0 0.0 0.0 xyz
      dof rx ry rz
   end
   begin
      id 30
      name RightToeBase
      direction 0.000000 0.000000 1.000000
      length 2.952750
      axis 0.0 0.0 0.0 xyz
      dof rx ry rz
   end
:hierarchy
   begin
      root Spine_dum LeftUpLeg_dum RightUpLeg_dum
      Spine_dum Spine
      LeftUpLeg_dum LeftUpLeg
      RightUpLeg_dum RightUpLeg
      Spine Spine_dum1 Spine_dum2 Spine_dum3
      Spine_dum1 Head
      Spine_dum2 LeftShoulder
      Spine_dum3 RightShoulder
      LeftShoulder LeftArm
      LeftArm LeftForeArm
      LeftForeArm LeftHand
      LeftHand LeftHand_dum1 LeftHand_dum2
      LeftHand_dum1 LeftHandThumb1
      RightShoulder RightArm
      RightArm RightForeArm
      RightForeArm RightHand
      RightHand RightHand_dum1 RightHand_dum2
      RightHand_dum1 RightHandThumb1
      LeftUpLeg LeftLeg
      LeftLeg LeftFoot
      LeftFoot LeftToeBase
      RightUpLeg RightLeg
      RightLeg RightFoot
      RightFoot RightToeBase
   end

# File created by Blade
# Date/Time:  Fri Jan 16 17:53:05 2015
# Frame Rate: 120.000 fps
#------------------------------------------------------
:FULLY-SPECIFIED
:DEGREES
435
root -4.558284 35.347546 -11.057623 -4.224406 -4.690208 -7.501595
Spine 8.714828 -2.629521 8.732943
Head 0.223194 6.882040 -5.102502
LeftShoulder -21.109839 15.289690 -5.267831
LeftArm 25.827256 -36.478864 -77.949000
LeftForeArm 0.565179 -0.000000 117.793183
LeftHand 3.578611 -0.000000 11.840509
LeftHandThumb1 -26.253704 0.000000 33.147579
RightShoulder -5.296460 -5.031386 0.114280
RightArm 9.718216 -26.693870 68.046776
RightForeArm -21.688966 0.000000 28.535986
RightHand 0.143875 -0.000000 -3.430718
RightHandThumb1 -24.326973 -0.000000 -32.862282
LeftUpLeg 12.906230 9.625828 -0.398131
LeftLeg -7.278137 -0.000000 0.000000
LeftFoot -17.125242 28.666473 -7.730567
LeftToeBase 20.758973 -0.000000 -0.000000
RightUpLeg 7.243547 6.568482 10.704061
RightLeg 3.782316 -0.000000 -0.000000
RightFoot -9.176450 -22.174285 5.636419
RightToeBase 5.722236 -0.000000 -0.000000
436
root -4.536959 35.343665 -11.044371 -3.958084 -4.721418 -7.649787
Spine 8.326530 -2.696388 8.967220
Head 0.291923 6.927895 -5.124319
LeftShoulder -21.134396 15.356302 -5.316512
LeftArm 25.552419 -36.435732 -77.584869
LeftForeArm 0.377572 -0.000000 117.825223
LeftHand 3.435668 -0.000000 11.779577
LeftHandThumb1 -26.253704 0.000000 33.147579
RightShoulder -5.315263 -5.068086 0.049028
RightArm 9.419843 -26.108747 68.396422
RightForeArm -21.830080 -0.000000 28.502892
RightHand 0.310339 -0.000000 -3.336936
RightHandThumb1 -24.326973 -0.000000 -32.862282
LeftUpLeg 12.905153 9.441925 -0.361893
LeftLeg -7.758741 -0.000000 0.000000
LeftFoot -16.931243 28.914474 -7.664679
LeftToeBase 20.748407 -0.000000 -0.000000
RightUpLeg 7.036900 7.200235 10.892887
RightLeg 3.853398 -0.000000 -0.000000
RightFoot -9.474814 -22.608972 5.999171
RightToeBase 4.445001 -0.000000 -0.000000
437
root -4.516060 35.340585 -11.033523 -3.714402 -4.729778 -7.790093
Spine 7.993030 -2.783145 9.163333
Head 0.305763 6.968254 -5.102492
LeftShoulder -21.166578 15.366378 -5.357612
LeftArm 25.228327 -36.365307 -77.140003
LeftForeArm 0.110467 0.000000 117.873172
LeftHand 3.468920 0.000000 11.922245
LeftHandThumb1 -26.253704 0.000000 33.147579
RightShoulder -5.390655 -5.156477 0.051288
RightArm 9.317966 -26.230966 68.389325
RightForeArm -21.330601 -0.000000 28.587434
RightHand 0.167210 -0.000000 -3.645934
RightHandThumb1 -24.326973 -0.000000 -32.862282
LeftUpLeg 12.892170 9.332685 -0.320162
LeftLeg -8.189178 -0.000000 0.000000
LeftFoot -16.738524 29.097809 -7.548636
LeftToeBase 20.778102 -0.000000 -0.000000
RightUpLeg 6.812374 7.646722 11.048672
RightLeg 3.992535 -0.000000 -0.000000
RightFoot -9.789467 -22.892730 6.394600
RightToeBase 3.258569 -0.000000 -0.000000
438
root -4.486467 35.338454 -11.025871 -3.453427 -4.815569 -7.906497
Spine 7.658036 -2.827879 9.370739
Head 0.321073 7.001376 -5.136006
LeftShoulder -21.257598 15.367638 -5.500241
LeftArm 24.971799 -36.299666 -76.718311
LeftForeArm -0.067547 -0.000000 117.977532
LeftHand 3.322717 0.000000 11.876155
LeftHandThumb1 -26.253704 0.000000 33.147579
RightShoulder -5.404655 -5.230176 0.015675
RightArm 9.177877 -26.096767 68.486204
RightForeArm -20.993060 -0.000000 28.563904
RightHand 0.229161 -0.000000 -3.666276
RightHandThumb1 -24.326973 -0.000000 -32.862282
LeftUpLeg 12.818180 9.131886 -0.337454
LeftLeg -8.522429 -0.000000 0.000000
LeftFoot -16.626202 29.406904 -7.555869
LeftToeBase 20.753609 -0.000000 -0.000000
RightUpLeg 6.473385 7.717372 11.112821
RightLeg 4.307207 -0.000000 -0.000000
RightFoot -10.151953 -22.886354 6.679040
RightToeBase 1.767731 -0.000000 -0.000000
